<svg xmlns="http://www.w3.org/2000/svg" viewBox="2 22 156 78" role="img" aria-label="ChalMolDB molecular mark">
<rect x="2" y="22" width="156" height="78" rx="14" fill="#F8FAFC"/>
<defs>
<radialGradient id="cmC" cx="32%" cy="25%" r="72%"><stop stop-color="#ffffff"/><stop offset=".48" stop-color="#dbe1e7"/><stop offset="1" stop-color="#8b96a1"/></radialGradient>
<radialGradient id="cmS" cx="30%" cy="24%" r="72%"><stop stop-color="#fff5b6"/><stop offset=".42" stop-color="#e7bd39"/><stop offset="1" stop-color="#ad7e00"/></radialGradient>
<radialGradient id="cmSe" cx="30%" cy="24%" r="72%"><stop stop-color="#c6fff6"/><stop offset=".42" stop-color="#39aa9e"/><stop offset="1" stop-color="#0d6b63"/></radialGradient>
<radialGradient id="cmTe" cx="30%" cy="24%" r="72%"><stop stop-color="#eee6f7"/><stop offset=".42" stop-color="#846b9f"/><stop offset="1" stop-color="#55406d"/></radialGradient>
<linearGradient id="cmBond" x1="0" x2="1"><stop stop-color="#99a4af"/><stop offset=".5" stop-color="#cbd2d9"/><stop offset="1" stop-color="#7f8a95"/></linearGradient>
<filter id="cmShadow" x="-30%" y="-30%" width="160%" height="160%"><feDropShadow dx="0" dy="2.5" stdDeviation="2.5" flood-color="#173b5b" flood-opacity="0.18"/></filter>
</defs>
<g transform="translate(80.0 60.0)" filter="url(#cmShadow)" stroke-linecap="round">
<g stroke="url(#cmBond)" stroke-width="4.5">
<path d="M-48.5 -9.1 -32.3 2.6"/>
<path d="M-32.3 2.6 -38.5 21.6"/>
<path d="M-38.5 21.6 -58.5 21.6"/>
<path d="M-58.5 21.6 -64.7 2.6"/>
<path d="M-64.7 2.6 -48.5 -9.1"/>
<path d="M0.0 9.1 16.2 -2.6"/>
<path d="M16.2 -2.6 10.0 -21.6"/>
<path d="M10.0 -21.6 -10.0 -21.6"/>
<path d="M-10.0 -21.6 -16.2 -2.6"/>
<path d="M-16.2 -2.6 0.0 9.1"/>
<path d="M-32.3 2.6 -16.2 -2.6"/>
<path d="M48.5 -9.1 64.7 2.6"/>
<path d="M64.7 2.6 58.5 21.6"/>
<path d="M58.5 21.6 38.5 21.6"/>
<path d="M38.5 21.6 32.3 2.6"/>
<path d="M32.3 2.6 48.5 -9.1"/>
<path d="M16.2 -2.6 32.3 2.6"/>
</g><g stroke="#ffffff" stroke-width="1.6">
<circle cx="-48.5" cy="-9.1" r="11.5" fill="url(#cmS)"/>
<circle cx="-32.3" cy="2.6" r="5" fill="url(#cmC)"/>
<circle cx="-38.5" cy="21.6" r="5" fill="url(#cmC)"/>
<circle cx="-58.5" cy="21.6" r="5" fill="url(#cmC)"/>
<circle cx="-64.7" cy="2.6" r="5" fill="url(#cmC)"/>
<circle cx="0.0" cy="9.1" r="11.5" fill="url(#cmSe)"/>
<circle cx="16.2" cy="-2.6" r="5" fill="url(#cmC)"/>
<circle cx="10.0" cy="-21.6" r="5" fill="url(#cmC)"/>
<circle cx="-10.0" cy="-21.6" r="5" fill="url(#cmC)"/>
<circle cx="-16.2" cy="-2.6" r="5" fill="url(#cmC)"/>
<circle cx="48.5" cy="-9.1" r="11.5" fill="url(#cmTe)"/>
<circle cx="64.7" cy="2.6" r="5" fill="url(#cmC)"/>
<circle cx="58.5" cy="21.6" r="5" fill="url(#cmC)"/>
<circle cx="38.5" cy="21.6" r="5" fill="url(#cmC)"/>
<circle cx="32.3" cy="2.6" r="5" fill="url(#cmC)"/>
</g><g font-family="Arial,Helvetica,sans-serif" font-weight="800" text-anchor="middle" dominant-baseline="central" fill="#ffffff">
<text x="-48.5" y="-8.7" font-size="11.5">S</text>
<text x="0.0" y="9.6" font-size="10.1">Se</text>
<text x="48.5" y="-8.7" font-size="10.1">Te</text>
</g></g>
</svg>
